<?xml version="1.0" encoding="utf-8"?>
<!-- Generator: Adobe Illustrator 24.3.0, SVG Export Plug-In . SVG Version: 6.00 Build 0)  -->
<svg version="1.1" id="Ebene_1" xmlns="http://www.w3.org/2000/svg" xmlns:xlink="http://www.w3.org/1999/xlink" x="0px" y="0px"
	 viewBox="0 0 377 204.1" style="enable-background:new 0 0 377 204.1;" xml:space="preserve">
<style type="text/css">
	.st0{fill:#4254A1;}
</style>
<path class="st0" d="M154.1,150.9l-4.1,41.4l-4.1-41.4c-0.2-1.5-0.2-3.1-0.2-4.6v-38.5h8.7v38.5
	C154.3,147.8,154.2,149.3,154.1,150.9z"/>
<path class="st0" d="M173.2,31.9v-5.8h-46.7v5.8h2.6c1.7,0,3,1.4,2.9,3.1l-2.6,55.3h40.8L167.7,35c-0.1-1.7,1.2-3.1,2.9-3.1
	C170.6,31.9,173.2,31.9,173.2,31.9z"/>
<g>
	<path class="st0" d="M176.2,31.9h-52.5c-1.6,0-2.9-1.3-2.9-2.9v-2.9c0-1.6,1.3-2.9,2.9-2.9h52.5c1.6,0,2.9,1.3,2.9,2.9V29
		C179.1,30.6,177.8,31.9,176.2,31.9z"/>
	<path class="st0" d="M129.5,90.2l-15.4,12.8c-1.3,1.1-2.1,2.7-2.1,4.5v3.1h75.8v-3.1c0-1.7-0.8-3.4-2.1-4.5l-15.4-12.8L129.5,90.2
		L129.5,90.2z"/>
</g>
<path class="st0" d="M184.9,113.6h-70c-1.6,0-2.9-1.3-2.9-2.9v-2.9c0-1.6,1.3-2.9,2.9-2.9h70c1.6,0,2.9,1.3,2.9,2.9v2.9
	C187.8,112.3,186.5,113.6,184.9,113.6z"/>
<path class="st0" d="M144.1,90.2l0.4-55.3c0-3.3-1.9-3.5-1.9-6v-2.9h-16v5.8h2.6c1.7,0,3,1.4,2.9,3.1l-2.6,55.3L144.1,90.2
	L144.1,90.2z"/>
<g>
	<path class="st0" d="M142.6,29v-2.9c0-1.6,1.4-2.9,3.1-2.9h-22.1c-1.6,0-2.9,1.3-2.9,2.9V29c0,1.6,1.3,2.9,2.9,2.9h20
		C143.2,31.1,142.6,30.4,142.6,29z"/>
	<path class="st0" d="M141.5,103.1l2.6-12.8h-14.6l-15.4,12.8c-1.3,1.1-2.1,2.7-2.1,4.5v3.1h29.2c0,0,0-2.2,0-2.9
		C141.2,105.6,141.3,104.2,141.5,103.1z"/>
</g>
<path class="st0" d="M141.2,110.6c0,0,0-2.2,0-2.9c0-1.2,0-2.1,0.1-2.9h-26.4c-1.6,0-2.9,1.3-2.9,2.9v2.9c0,1.6,1.3,2.9,2.9,2.9
	h29.4C142.6,113.6,141.2,112.3,141.2,110.6z"/>
<rect x="145.5" y="113.6" class="st0" width="8.7" height="5.8"/>
</svg>
